<svg width="24" height="25" viewBox="0 0 24 25" fill="none" xmlns="http://www.w3.org/2000/svg">
    <mask id="mask0_20_13" style="mask-type:alpha" maskUnits="userSpaceOnUse" x="0" y="0" width="24" height="25">
        <rect y="0.75" width="24" height="24" fill="#D9D9D9"/>
    </mask>
    <g mask="url(#mask0_20_13)">
        <path d="M15 20.75C14.7167 20.75 14.4792 20.6542 14.2875 20.4625C14.0958 20.2708 14 20.0333 14 19.75C14 19.4667 14.0958 19.2292 14.2875 19.0375C14.4792 18.8458 14.7167 18.75 15 18.75H17C17.2833 18.75 17.5208 18.6542 17.7125 18.4625C17.9042 18.2708 18 18.0333 18 17.75V15.75C18 15.1167 18.1833 14.5417 18.55 14.025C18.9167 13.5083 19.4 13.1417 20 12.925V12.575C19.4 12.3583 18.9167 11.9917 18.55 11.475C18.1833 10.9583 18 10.3833 18 9.75V7.75C18 7.46667 17.9042 7.22917 17.7125 7.0375C17.5208 6.84583 17.2833 6.75 17 6.75H15C14.7167 6.75 14.4792 6.65417 14.2875 6.4625C14.0958 6.27083 14 6.03333 14 5.75C14 5.46667 14.0958 5.22917 14.2875 5.0375C14.4792 4.84583 14.7167 4.75 15 4.75H17C17.8333 4.75 18.5417 5.04167 19.125 5.625C19.7083 6.20833 20 6.91667 20 7.75V9.75C20 10.0333 20.0958 10.2708 20.2875 10.4625C20.4792 10.6542 20.7167 10.75 21 10.75C21.2833 10.75 21.5208 10.8458 21.7125 11.0375C21.9042 11.2292 22 11.4667 22 11.75V13.75C22 14.0333 21.9042 14.2708 21.7125 14.4625C21.5208 14.6542 21.2833 14.75 21 14.75C20.7167 14.75 20.4792 14.8458 20.2875 15.0375C20.0958 15.2292 20 15.4667 20 15.75V17.75C20 18.5833 19.7083 19.2917 19.125 19.875C18.5417 20.4583 17.8333 20.75 17 20.75H15ZM7 20.75C6.16667 20.75 5.45833 20.4583 4.875 19.875C4.29167 19.2917 4 18.5833 4 17.75V15.75C4 15.4667 3.90417 15.2292 3.7125 15.0375C3.52083 14.8458 3.28333 14.75 3 14.75C2.71667 14.75 2.47917 14.6542 2.2875 14.4625C2.09583 14.2708 2 14.0333 2 13.75V11.75C2 11.4667 2.09583 11.2292 2.2875 11.0375C2.47917 10.8458 2.71667 10.75 3 10.75C3.28333 10.75 3.52083 10.6542 3.7125 10.4625C3.90417 10.2708 4 10.0333 4 9.75V7.75C4 6.91667 4.29167 6.20833 4.875 5.625C5.45833 5.04167 6.16667 4.75 7 4.75H9C9.28333 4.75 9.52083 4.84583 9.7125 5.0375C9.90417 5.22917 10 5.46667 10 5.75C10 6.03333 9.90417 6.27083 9.7125 6.4625C9.52083 6.65417 9.28333 6.75 9 6.75H7C6.71667 6.75 6.47917 6.84583 6.2875 7.0375C6.09583 7.22917 6 7.46667 6 7.75V9.75C6 10.3833 5.81667 10.9583 5.45 11.475C5.08333 11.9917 4.6 12.3583 4 12.575V12.925C4.6 13.1417 5.08333 13.5083 5.45 14.025C5.81667 14.5417 6 15.1167 6 15.75V17.75C6 18.0333 6.09583 18.2708 6.2875 18.4625C6.47917 18.6542 6.71667 18.75 7 18.75H9C9.28333 18.75 9.52083 18.8458 9.7125 19.0375C9.90417 19.2292 10 19.4667 10 19.75C10 20.0333 9.90417 20.2708 9.7125 20.4625C9.52083 20.6542 9.28333 20.75 9 20.75H7Z" fill="#AFAFAF"/>
    </g>
</svg>
