<svg width="34" height="28" viewBox="0 0 34 28" fill="none" xmlns="http://www.w3.org/2000/svg">
    <path d="M10.2738 18.1469C10.2738 18.1469 10.3759 13.9973 7.81361 10.5715C6.24252 8.5154 3.77191 6.79428 0 6.27423C0 6.27423 0.898955 4.254 3.75637 4.00536C2.40793 3.477 1.41265 1.98514 1.41265 1.98514C2.98583 0.182484 7.19169 0.555448 7.19169 0.555448C10.7875 0.36897 13.5486 4.00536 13.5486 4.00536C13.5486 4.00536 15.2502 0.244648 22.9556 2.88647C30.5647 7.36204 25.1388 10.6876 25.1388 10.6876C25.1388 10.6876 31.8168 10.0039 34 14.9146C32.2021 14.8835 22.1851 15.6294 17.1766 20.5712C17.1766 20.5712 13.3239 25.6994 11.7507 27.1913C10.7233 28.0926 9.5354 26.5697 9.5354 26.5697C9 26.0235 10.2738 19.0235 10.2738 18.1469Z" fill="#121212"/>
</svg>
