<svg width="28" height="24" viewBox="0 0 28 24" fill="none" xmlns="http://www.w3.org/2000/svg">
    <path d="M8.46081 15.4151C8.46081 15.4151 8.54486 11.9978 6.43474 9.17652C5.1409 7.48327 3.10628 6.06588 0 5.6376C0 5.6376 0.740316 3.97389 3.09348 3.76912C1.983 3.334 1.16336 2.10541 1.16336 2.10541C2.45892 0.620871 5.92257 0.928018 5.92257 0.928018C8.88385 0.774448 11.1577 3.76912 11.1577 3.76912C11.1577 3.76912 12.559 0.672065 18.9046 2.84768C25.1709 6.53345 20.7025 9.27217 20.7025 9.27217C20.7025 9.27217 26.2021 8.70907 28 12.7532C26.5194 12.7276 18.2701 13.3419 14.1454 17.4116C14.1454 17.4116 10.9726 21.6348 9.67706 22.8634C8.83097 23.6057 7.85268 22.3515 7.85268 22.3515C7.41176 21.9017 8.46081 16.137 8.46081 15.4151Z" fill="#FF9500"/>
</svg>
